Coordinates
version=1
nRows=14
nColumns=36
inDegrees=yes

Units are S.I. units (second, meters, Newtons, ...)
If the header above contains a line with 'inDegrees', this indicates whether rotational values are in degrees (yes) or radians (no).

endheader
time	pelvis_tilt	pelvis_list	pelvis_rotation	pelvis_tx	pelvis_ty	pelvis_tz	hip_flexion_r	hip_adduction_r	hip_rotation_r	knee_angle_r	knee_angle_r_beta	ankle_angle_r	subtalar_angle_r	mtp_angle_r	hip_flexion_l	hip_adduction_l	hip_rotation_l	knee_angle_l	knee_angle_l_beta	ankle_angle_l	subtalar_angle_l	mtp_angle_l	lumbar_extension	lumbar_bending	lumbar_rotation	arm_flex_r	arm_add_r	arm_rot_r	elbow_flex_r	pro_sup_r	arm_flex_l	arm_add_l	arm_rot_l	elbow_flex_l	pro_sup_l
      1.47000000	     -3.62785829	      1.45017160	     -2.36742951	     -0.49321386	      1.09620552	     -0.56353077	     26.53129355	     -4.47196742	     -5.78387285	     11.48521853	      0.20045488	    -37.35389643	     -4.54479280	     -7.51742163	     26.39380033	     -5.17591241	     -8.65369156	      9.34034828	      0.16301983	    -35.89112889	      0.91170733	     -7.51742163	    -13.47225814	     -1.03743120	     13.25807476	    -76.23252848	    -61.80398639	    -70.17644614	    108.97088897	    105.45252341	     70.54894120	    -52.91980383	     56.41018959	     46.41402666	    109.10641838
      1.48000000	     -3.12527535	      1.35728469	     -2.63751301	     -0.48052605	      1.07407361	     -0.56329771	     26.59765327	     -4.45324545	     -5.35442088	     12.20565591	      0.21302888	    -38.12541060	     -5.24700434	     -7.51634948	     26.38930975	     -5.43454781	     -8.32540892	     10.76064762	      0.18780873	    -36.07539024	     -0.57779900	     -7.51634948	    -14.02068405	     -0.35372854	     14.01669458	    -80.47710195	    -56.94377799	    -73.37053490	    110.68157942	    105.11788945	     68.12766256	    -56.11127928	     56.53284110	     48.36409376	    108.57757734
      1.49000000	     -2.61346677	      1.36301632	     -2.91795327	     -0.46790608	      1.05107705	     -0.56283472	     26.74583186	     -4.50872809	     -4.44306064	     13.18623430	      0.23014320	    -38.86830612	     -4.99983975	     -7.51552952	     26.60019695	     -5.66834668	     -8.14371919	     12.83491113	      0.22401146	    -36.09250033	     -1.76986044	     -7.51552952	    -14.58467124	      0.02038199	     14.62501604	    -81.95617265	    -51.91326242	    -74.32222852	    111.56441456	    104.36394242	     65.57535268	    -59.65242099	     56.86040575	     50.73973772	    107.76824323
      1.50000000	     -2.06481532	      1.24801641	     -3.09995094	     -0.45528488	      1.02717878	     -0.56274527	     26.94608790	     -4.45068673	     -3.22830875	     14.20064095	      0.24784794	    -40.55288276	     -4.90583426	     -7.51172520	     26.96214790	     -5.89617411	     -7.30982950	     15.17689266	      0.26488675	    -36.83674649	     -2.98267348	     -7.51172520	    -15.45166605	      0.57095031	     12.71051400	    -82.32421035	    -50.51249763	    -74.25317295	    111.82903021	    105.17232259	     55.17229767	    -66.83781996	     47.54375733	     56.83006604	    107.01008919
      1.51000000	     -1.59467095	      1.06080263	     -3.31110658	     -0.44298425	      1.00235360	     -0.56247658	     27.48162924	     -4.23657424	     -1.91730799	     15.82122907	      0.27613254	    -41.66359358	     -5.13274279	     -7.50521575	     27.65641461	     -6.20050252	     -6.52899539	     17.92996258	      0.31293688	    -37.37505459	     -3.81855305	     -7.50521575	    -16.41608495	      0.96526558	      9.86435156	    -81.28755643	    -50.51697689	    -72.86114056	    111.30180110	    105.76335838	     32.64239577	    -74.06312188	     26.56155085	     63.54276762	    107.33402749
      1.52000000	     -1.44822700	      0.82767948	     -3.60363673	     -0.43173982	      0.97653709	     -0.56213702	     28.94068692	     -3.80616670	     -0.69330283	     20.07141658	      0.35031230	    -37.32641835	     -7.20850209	     -7.49950207	     29.06452936	     -6.60463087	     -6.05975526	     22.16171172	      0.38679484	    -33.60442719	     -5.67341567	     -7.49950207	    -17.31782522	      1.05262876	      5.00867926	    -77.81812719	    -53.83600026	    -68.96546229	    109.58813907	    105.16950285	    -22.06126064	    -75.51622607	    -26.95683211	     71.40769272	    107.01717396
      1.53000000	     -1.46316481	      0.76077985	     -3.92982364	     -0.42179360	      0.94938703	     -0.56177726	     31.67195292	     -3.39980342	      0.40259750	     28.58938360	      0.49897887	    -23.77843569	     -9.94107995	     -7.49961918	     31.24762863	     -6.93233404	     -5.97908041	     29.00434938	      0.50622139	    -22.29590803	     -8.55993862	     -7.49961918	    -17.62520643	      1.50866209	      6.80041398	    -78.83216203	    -47.29193279	    -68.78644653	    109.68668075	     99.68651083	    -24.92732305	    -74.33158776	    -27.02160926	     71.37375146	    100.83488579
      1.54000000	     -1.47649039	      0.76550504	     -4.05661757	     -0.41197903	      0.92124200	     -0.56167789	     34.89959711	     -3.01930261	      1.40305629	     38.77912427	      0.67682340	     -6.49977622	    -10.15931989	     -7.49993740	     33.88251626	     -7.06380683	     -5.61433102	     37.37568314	      0.65232873	     -7.07738531	    -10.46016466	     -7.49993740	    -18.62235120	      0.37173791	     -2.92342467	    -68.02036882	    -57.79225952	    -57.61854982	    104.32434518	    104.34337177	    -64.73689318	    -58.91523201	    -66.78940925	     80.10123587	    105.00387371
      1.55000000	     -1.58959362	      0.62145795	     -4.12960497	     -0.40283469	      0.89380668	     -0.56147259	     37.79557168	     -2.35052782	      2.22616776	     47.03341441	      0.82088794	      6.02823233	    -10.40264804	     -7.49995038	     36.55282520	     -7.34781483	     -5.25351189	     44.90793764	      0.78379137	      5.17991623	    -11.28906997	     -7.49995038	    -19.11343904	      0.61670550	     -2.99924442	    -67.12265263	    -53.85973799	    -55.68283407	    103.38087928	    100.31053792	    -65.54543870	    -55.07522206	    -65.79495602	     80.63070664	    100.77020110
      1.56000000	     -2.90508942	      0.27519821	     -4.14365941	     -0.39564618	      0.86721288	     -0.56108230	     41.30335423	     -1.51077144	      2.50412249	     52.64882631	      0.91889537	     13.88485990	    -11.16933506	     -7.49995685	     40.48790603	     -7.98982896	     -4.64586072	     51.08872438	      0.89166645	     12.76610300	    -11.93072501	     -7.49995685	    -18.51346570	      1.14239237	     -3.39687559	    -64.39183866	    -50.50376587	    -52.34997003	    101.53201778	     99.16399223	    -64.73920347	    -50.72780887	    -63.81998346	     80.30516025	     99.45933468
      1.57000000	     -5.54861431	      0.00562344	     -4.26417620	     -0.39090781	      0.84128744	     -0.56059102	     46.35236738	     -0.75745118	      2.59866781	     57.32402466	      1.00049297	     17.94601221	    -12.47871561	     -7.49996144	     46.35577663	     -8.78206257	     -3.76474746	     57.00091278	      0.99485360	     16.37447387	    -12.86996159	     -7.49996144	    -16.67890788	      1.68519499	     -3.58927135	    -60.87466998	    -46.99532019	    -48.74680940	     99.10244543	     98.13623815	    -62.65171376	    -46.64146542	    -60.79608176	     79.43436186	     98.20109025
      1.58000000	     -8.07183228	     -0.00089275	     -4.56919675	     -0.38707065	      0.81741548	     -0.56012100	     52.02751289	     -0.15006473	      3.02739563	     62.77251850	      1.09558713	     20.00254550	    -12.97368667	     -7.49996641	     52.73520056	     -9.47627042	     -2.88579140	     63.43151238	      1.10708874	     18.09466446	    -12.83709212	     -7.49996641	    -15.11979780	      1.79118903	     -4.33917279	    -56.05791839	    -44.38755692	    -44.61049413	     95.35393684	    106.40756509	    -61.05795534	    -41.86202491	    -58.89596992	     78.12752240	    104.12295614
      1.59000000	     -9.00851215	      0.15785348	     -4.91996774	     -0.38237377	      0.79776512	     -0.55979541	     56.27813767	      0.36678905	      3.80531107	     68.72621148	      1.19949867	     20.93307160	    -13.57616223	     -7.49996689	     57.29574474	     -9.91868384	     -2.31342564	     69.67635067	      1.21608173	     18.59032962	    -13.41052212	     -7.49996689	    -15.38641230	      1.80832726	     -3.97219481	    -52.91961137	    -40.35752159	    -42.16265331	     93.09963892	    106.31863751	    -58.01924836	    -38.84254909	    -55.22553414	     77.08421707	    104.12711885
      1.60000000	     -8.69870092	      0.29584405	     -4.99885843	     -0.37694746	      0.78203693	     -0.55974522	     58.73450545	      0.44942561	      4.17499262	     74.11711151	      1.29358763	     21.87328087	    -13.60536988	     -7.49996737	     59.67656936	    -10.14636936	     -2.08855050	     74.75019286	      1.30463698	     19.41194158	    -13.67883707	     -7.49996737	    -17.09018845	      1.75767702	     -3.77868375	    -49.86085256	    -36.50287638	    -39.71065090	     91.05854811	    106.36486992	    -54.91735904	    -36.20829745	    -51.41024917	     76.48100819	    104.23432976
